<?xml version="1.0" encoding="UTF-8" standalone="no"?>
<svg
   width="24"
   height="24"
   viewBox="0 0 24 24"
   fill="none"
   version="1.1"
   id="svg6"
   sodipodi:docname="pacman_nom.svg"
   inkscape:version="1.1.1 (3bf5ae0d25, 2021-09-20, custom)"
   xmlns:inkscape="http://www.inkscape.org/namespaces/inkscape"
   xmlns:sodipodi="http://sodipodi.sourceforge.net/DTD/sodipodi-0.dtd"
   xmlns="http://www.w3.org/2000/svg"
   xmlns:svg="http://www.w3.org/2000/svg">
  <defs
     id="defs10" />
  <sodipodi:namedview
     id="namedview8"
     pagecolor="#ffffff"
     bordercolor="#666666"
     borderopacity="1.0"
     inkscape:pageshadow="2"
     inkscape:pageopacity="0.0"
     inkscape:pagecheckerboard="0"
     showgrid="false"
     inkscape:zoom="34.625"
     inkscape:cx="11.98556"
     inkscape:cy="11.98556"
     inkscape:window-width="2560"
     inkscape:window-height="1440"
     inkscape:window-x="0"
     inkscape:window-y="0"
     inkscape:window-maximized="1"
     inkscape:current-layer="svg6" />
  <path
     d="M14.0636 8C14.6159 8 15.0636 7.55228 15.0636 7C15.0636 6.44772 14.6159 6 14.0636 6C13.5113 6 13.0636 6.44772 13.0636 7C13.0636 7.55228 13.5113 8 14.0636 8Z"
     fill="currentColor"
     id="path2"
     style="fill:#d840d8;fill-opacity:1" />
  <path
     d="m 16.78698,12.8 c 0.469455,0 0.85,-0.380562 0.85,-0.85 0,-0.469438 -0.380545,-0.85 -0.85,-0.85 -0.469455,0 -0.85,0.380562 -0.85,0.85 0,0.469438 0.380545,0.85 0.85,0.85 z"
     fill="currentColor"
     id="path2-3"
     style="fill:#d840d8;fill-opacity:1;stroke-width:0.85" />
  <path
     d="m 18.77298,12.8 c 0.469455,0 0.85,-0.380562 0.85,-0.85 0,-0.469438 -0.380545,-0.85 -0.85,-0.85 -0.469455,0 -0.85,0.380562 -0.85,0.85 0,0.469438 0.380545,0.85 0.85,0.85 z"
     fill="currentColor"
     id="path2-3-7"
     style="fill:#d840d8;fill-opacity:1;stroke-width:0.85" />
  <path
     d="m 20.755859,12.8 c 0.469455,0 0.85,-0.380562 0.85,-0.85 0,-0.469438 -0.380545,-0.85 -0.85,-0.85 -0.469455,0 -0.85,0.380562 -0.85,0.85 0,0.469438 0.380545,0.85 0.85,0.85 z"
     fill="currentColor"
     id="path2-3-7-5"
     style="fill:#d840d8;fill-opacity:1;stroke-width:0.85"
     inkscape:transform-center-x="-0.1095548"
     inkscape:transform-center-y="0.68874803" />
  <path
     d="m 22.669473,12.8 c 0.469455,0 0.85,-0.380562 0.85,-0.85 0,-0.469438 -0.380545,-0.85 -0.85,-0.85 -0.469455,0 -0.85,0.380562 -0.85,0.85 0,0.469438 0.380545,0.85 0.85,0.85 z"
     fill="currentColor"
     id="path2-3-7-5-3"
     style="fill:#d840d8;fill-opacity:1;stroke-width:0.85"
     inkscape:transform-center-x="-0.1095548"
     inkscape:transform-center-y="0.68874803" />
  <path
     fill-rule="evenodd"
     clip-rule="evenodd"
     d="M13 3C15.1523 3 17.1281 3.7555 18.6768 5.01576L20.124 6.46299L18.8288 7.75818L18.828 7.75738L14.5854 12L18.2236 15.6383L18.2224 15.6396L20.1273 17.5445L18.7144 18.9575L18.7122 18.9553C17.1583 20.2329 15.1687 21 13 21C8.02944 21 4 16.9706 4 12C4 7.02944 8.02944 3 13 3ZM11.7569 12L17.2893 17.5323C16.1044 18.4523 14.6162 19 13 19C9.13401 19 6 15.866 6 12C6 8.13401 9.13401 5 13 5C14.6162 5 16.1045 5.54772 17.2893 6.46768L11.7569 12Z"
     fill="currentColor"
     id="path4"
     style="fill:#d840d8;fill-opacity:1" />
</svg>
