<?xml version="1.0" encoding="UTF-8" standalone="no"?>
<svg
   width="24"
   height="24"
   viewBox="0 0 24 24"
   fill="none"
   version="1.1"
   id="svg6"
   sodipodi:docname="pacman.svg"
   inkscape:version="1.1.1 (3bf5ae0d25, 2021-09-20, custom)"
   xmlns:inkscape="http://www.inkscape.org/namespaces/inkscape"
   xmlns:sodipodi="http://sodipodi.sourceforge.net/DTD/sodipodi-0.dtd"
   xmlns="http://www.w3.org/2000/svg"
   xmlns:svg="http://www.w3.org/2000/svg">
  <defs
     id="defs10" />
  <sodipodi:namedview
     id="namedview8"
     pagecolor="#ffffff"
     bordercolor="#666666"
     borderopacity="1.0"
     inkscape:pageshadow="2"
     inkscape:pageopacity="0.0"
     inkscape:pagecheckerboard="0"
     showgrid="false"
     inkscape:zoom="17.3125"
     inkscape:cx="8.866426"
     inkscape:cy="16.866426"
     inkscape:window-width="1271"
     inkscape:window-height="1384"
     inkscape:window-x="5"
     inkscape:window-y="49"
     inkscape:window-maximized="1"
     inkscape:current-layer="svg6" />
  <path
     d="M14.0636 8C14.6159 8 15.0636 7.55228 15.0636 7C15.0636 6.44772 14.6159 6 14.0636 6C13.5113 6 13.0636 6.44772 13.0636 7C13.0636 7.55228 13.5113 8 14.0636 8Z"
     fill="currentColor"
     id="path2"
     style="fill:#d840d8;fill-opacity:1" />
  <circle
     style="fill:none;stroke:#d840d8;stroke-width:1.72157;stroke-miterlimit:4;stroke-dasharray:none;stroke-opacity:1"
     id="path128"
     cx="13.453778"
     cy="12.077578"
     r="8.2812634" />
  <path
     d="m 14.0636,8 c 0.5523,0 1,-0.44772 1,-1 0,-0.55228 -0.4477,-1 -1,-1 -0.5523,0 -1,0.44772 -1,1 0,0.55228 0.4477,1 1,1 z"
     fill="currentColor"
     id="path2-36"
     style="fill:#d840d8;fill-opacity:1" />
  <rect
     style="fill:none;stroke:#d840d8;stroke-width:1.7;stroke-miterlimit:4;stroke-dasharray:none;stroke-opacity:1"
     id="rect1792"
     width="8.3496857"
     x="13.468009"
     y="12.944548"
     height="2.7755576e-17" />
</svg>
